ply
format ascii 1.0
element vertex 740
property float x
property float y
property float z
element face 1499
property list uchar int vertex_indices
end_header
0.166735 -0.314921 0.0288536
0.17915 -0.2233 0.02857
0.17735 -0.17186 0.01386
0.13917 -0.34496 0.09449
0.156616 -0.4083 0.104219
0.1373 -0.433192 0.119861
0.166745 -0.0423305 0.104999
0.15656 -0.0825499 0.09922
0.130908 -0.0864321 0.124092
0.147007 -0.403597 0.0179323
0.158441 -0.335666 -0.0134361
0.134038 -0.351055 -0.0227785
0.237292 0.1309 0.0778529
0.232074 0.048513 0.0967078
0.233012 0.0866494 0.103229
0.197544 -0.00804921 0.105199
0.20578 -0.046959 0.0905187
0.199481 -0.025116 0.05565
0.0648399 0.2479 -0.10264
0.0474199 0.25925 -0.10887
0.00705992 0.24133 -0.10811
0.0601181 0.197865 -0.0906373
-0.00423006 0.1799 -0.09166
0.0509799 0.16213 -0.07931
-0.002384 0.145653 -0.0789937
0.0294498 -0.0289584 -0.0495415
-0.02067 0.14448 -0.07775
0.000630654 -0.0353967 -0.0511858
0.0217771 0.748682 0.0842421
0.00882012 0.811829 0.0696286
0.0539218 0.826796 0.033462
0.130002 0.533287 -0.0125219
0.11397 0.567627 0.00815062
0.0663032 0.52827 -0.049137
0.0641998 0.51965 -0.05446
0.11245 0.47274 -0.06522
0.141676 0.516156 -0.0153428
0.12957 0.48274 -0.04668
0.128082 0.475963 -0.0544736
0.169213 -0.684279 0.056276
0.177893 -0.786872 0.0388173
0.180664 -0.83457 0.0561549
0.17127 -0.71228 0.06664
0.173953 -0.800145 0.0804024
0.117944 -0.650952 0.119792
0.0987113 -0.730601 0.13356
0.0703661 -0.700632 0.129648
0.0623218 0.78428 0.0562768
0.045171 0.741309 0.0717798
0.146622 -0.649393 0.112694
0.11908 -0.60183 0.12115
0.13653 -0.56677 0.12077
0.198097 0.526975 0.105104
0.163688 0.532569 0.108843
0.170808 0.58072 0.0814826
-0.0590234 -0.495876 0.0385545
-0.0643039 -0.424796 0.0355784
-0.0711261 -0.499758 0.0331266
0.127813 -0.741796 0.0173792
0.118907 -0.791198 0.00113372
0.143119 -0.801658 -0.0127226
-0.0525819 -0.714304 0.107501
-0.0737236 -0.672363 0.0923377
-0.0519192 -0.715779 0.0736803
0.0061018 -0.104617 0.0892245
-0.0358102 -0.0970166 0.123687
0.00354811 -0.0621627 0.12662
0.15052 0.11933 0.01366
0.148298 0.121283 0.00432863
0.15041 0.0776201 0.02434
0.14591 0.09537 0.04336
0.17056 0.27279 0.0211
0.16613 0.24251 0.04446
0.140083 0.113267 0.0589867
0.15617 0.149 0.04595
-0.0448183 -0.169544 0.113269
-0.0343599 -0.19463 0.10446
-0.0433133 -0.195395 0.115817
0.243162 0.19811 0.0907647
0.22924 0.148418 0.109601
0.234541 0.203648 0.104998
0.10671 -0.399626 0.0125168
-0.237855 0.266066 0.0772821
-0.222695 0.331516 0.0660529
-0.22038 0.31023 0.09683
0.00216669 0.724756 -0.109264
0.00541616 0.664208 -0.127096
0.036322 0.666467 -0.0984613
-0.234557 0.216006 0.0508101
-0.230904 0.214565 0.0939118
-0.236644 0.196836 0.0738943
-0.20082 0.279 0.04145
-0.177623 0.302948 0.044545
-0.211918 0.313305 0.0459608
-0.218712 0.25897 0.0374651
0.0902207 0.735741 -0.00132802
0.0917685 0.780885 -0.0283896
0.0857528 0.681604 -0.00304137
-0.0337636 0.729652 -0.114371
0.00227637 0.740514 -0.119897
0.112892 0.131091 0.100624
0.1504 0.156064 0.0672589
0.138 0.20238 0.09484
0.0522328 0.609938 -0.042522
0.0321361 0.604783 -0.0855385
0.0083066 0.584019 -0.0610752
0.125807 -0.640288 0.0486236
0.12505 -0.61676 0.04693
0.10535 -0.61192 0.05978
0.100373 -0.637803 0.0742906
-0.222026 0.221435 0.111241
-0.194842 0.125825 0.119336
-0.212235 0.0933663 0.109671
0.15422 0.4325 0.11193
0.161218 0.411716 0.101943
0.15193 0.4245 0.11154
0.13196 0.03717 -0.02762
0.16228 -0.29871 0.01401
0.13761 0.05029 -0.02119
0.14473 -0.29656 -0.00635
0.069584 -0.241097 0.0912226
0.0461793 -0.159654 0.0999107
0.0680487 -0.164369 0.120108
0.054293 -0.128691 0.111862
0.026831 -0.11087 0.0879624
0.18134 0.000965223 0.0394772
0.16856 -0.0281099 0.05135
0.189273 -0.060371 0.0633467
-0.0376401 0.38016 -0.11437
-0.0789501 0.40406 -0.10073
-0.0916701 0.40028 -0.09542
-0.0977601 0.26871 -0.08811
-0.09933 0.10439 -0.03799
-0.10884 0.07768 -0.0328
-0.11404 0.04065 -0.03457
-0.06654 -0.0228 -0.03987
-0.13602 -0.13509 -0.01838
-0.0350807 -0.0416316 -0.0402285
-0.11972 -0.31812 -0.0115
-0.134372 -0.298697 -0.00567594
0.194772 0.566682 0.0152148
0.140178 0.584525 0.0307242
0.131981 -0.314127 0.0916385
0.131349 -0.267387 0.0966844
0.15685 -0.24767 0.08378
0.14647 -0.22094 0.10583
0.122117 -0.217511 0.122656
0.220016 -0.0632223 0.0958163
0.227943 0.00281384 0.115495
0.239244 -0.0163012 0.0784014
0.212567 -0.0390861 0.118037
-0.194972 0.195558 0.122471
-0.167113 0.262214 0.120041
-0.158334 0.203966 0.112701
-0.242374 -0.0197708 0.0621107
-0.233276 -0.0153246 0.0967359
-0.22097 -0.0629009 0.0786316
-0.102989 0.698117 0.0139894
-0.0879845 0.690503 -0.0180119
-0.0862899 0.704229 -0.00240484
-0.15652 -0.55374 0.05279
-0.1596 -0.50002 0.04978
-0.164731 -0.467325 0.062312
-0.16553 -0.51803 0.06351
-0.150342 -0.617535 0.0576075
0.200711 0.545528 0.00942871
-0.0253792 0.840441 -0.0487695
0.0136719 0.848953 -0.0388911
-0.029269 0.848282 0.00955889
0.107768 -0.14366 0.12306
-0.148916 -0.390488 0.017963
-0.154629 -0.335423 0.00811715
-0.15946 -0.42117 0.07063
-0.15963 -0.423302 0.0602991
-0.0706166 0.829828 0.014646
-0.0503644 0.821148 -0.058317
-0.234704 0.275932 0.0585772
-0.035406 -0.462797 0.0868804
-0.0380315 -0.517009 0.0721444
-0.0416852 -0.516667 0.100141
0.0469946 -0.281035 0.0468423
0.0436895 -0.215401 0.0669121
0.0365185 -0.214225 0.040231
0.0307158 -0.153627 0.0715256
-0.13538 0.08346 -0.00192
-0.15976 0.31178 -0.01385
-0.16303 0.26123 0.01471
-0.148853 0.187163 0.0115985
-0.136328 0.0812233 0.00542651
-0.0749582 -0.741991 0.0711452
-0.11614 -0.76203 0.05971
-0.132793 -0.759356 0.116393
-0.0842335 -0.738654 0.123199
0.068889 -0.334718 0.0710049
0.047574 -0.318451 0.0378882
0.0707301 -0.30245 0.07475
0.17051 0.27705 0.04998
0.164019 0.335365 0.0403151
0.163304 0.268895 0.05633
0.19177 0.10049 0.0574
0.16369 0.25262 0.06392
0.154042 0.256588 0.0741704
0.16901 0.17125 0.06883
0.18657 0.0927501 0.06616
-0.18827 0.24678 0.0421
-0.204656 0.188202 0.0423255
-0.18571 0.13777 0.05075
0.0921797 0.76675 -0.00201
0.0745858 0.690507 0.0181817
0.0673253 0.68939 0.0375389
0.0884503 0.795655 0.00574609
0.16513 -0.435735 0.0519038
0.162712 -0.389565 0.0809077
0.16361 -0.39501 0.03857
0.16727 -0.44409 0.06038
0.16709 -0.60457 0.06601
0.17417 -0.49561 0.08707
0.16827 -0.61416 0.0774
0.0947201 -0.629352 0.0951652
0.103852 -0.617114 0.113975
0.099674 -0.667011 0.111697
-0.197412 0.512497 0.113653
-0.208562 0.556539 0.0577789
-0.163093 0.568978 0.0896985
0.241412 -0.0199452 0.0594234
0.224792 -0.0109551 0.0316893
0.209455 -0.0672938 0.060571
0.0713302 -0.46008 0.04335
0.0684207 -0.420979 0.0385175
0.0541113 -0.462507 0.066834
0.0708027 -0.504511 0.0468197
0.0592145 -0.530126 0.0686401
0.010238 0.638476 -0.108494
-0.0308392 -0.10023 -0.0148257
-0.0156136 -0.11228 -0.027123
-0.0313079 -0.0700691 -0.0239682
0.155281 0.0265232 0.115371
0.152347 -0.0346317 0.121997
0.15218 -0.00637995 0.11928
0.14671 -0.00207995 0.12105
0.07428 0.13105 0.12015
0.107962 0.103462 0.111234
0.0914684 0.136173 0.114093
0.135042 0.123568 -0.0196524
0.125944 0.0584318 -0.0351441
0.183607 0.0304165 0.101903
0.166932 -0.0212745 0.070236
0.178341 0.228384 0.112904
0.173156 0.173395 0.108308
0.15777 0.282395 0.0934618
0.17328 0.31305 0.10374
0.155814 0.32642 0.0823761
0.086768 0.797988 -0.0296154
-0.0824371 -0.680827 0.062182
-0.14628 -0.686957 0.109886
-0.152019 -0.619119 0.0874508
-0.131631 -0.682071 0.117462
-0.125747 -0.631328 0.11565
-0.14597 -0.55855 0.10782
-0.13839 -0.54742 0.11307
-0.0568072 0.707938 -0.0985725
0.0569871 0.60548 -0.0229078
-0.0769043 -0.633317 0.0755801
-0.0847998 -0.65402 0.10604
-0.0586869 -0.572796 0.0801407
-0.0439796 0.587541 -0.0352824
-0.0596171 0.618434 -0.0312984
-0.0702275 0.601469 0.00159362
-0.0223918 0.603832 -0.0914001
-0.142325 -0.121358 0.0993287
-0.142592 -0.0541457 0.12152
-0.121429 -0.134122 0.119743
0.120063 -0.81682 0.00960296
0.113548 -0.779594 0.0450892
0.153486 -0.832919 0.0462791
0.159968 -0.42034 0.0432413
0.0422201 -0.24896 0.03059
-0.156421 -0.32159 0.0356551
-0.151842 -0.297653 0.0111819
0.144798 -0.62268 0.0448757
0.1505 -0.53558 0.03694
0.14348 -0.549785 0.037015
-0.108117 0.58212 0.0325707
-0.0588887 0.601435 0.0495415
-0.19843 0.46254 0.11832
-0.217128 0.445975 0.107669
-0.0589535 0.553515 -0.0323508
-0.08201 0.06938 0.12216
-0.13949 0.0417024 0.113603
-0.101507 0.0908286 0.106813
-0.0818102 0.0909774 0.114763
-0.106166 0.13489 0.0997735
0.000960831 -0.0498483 -0.0540041
0.0861874 0.593888 0.0356629
-0.0313399 -0.16903 0.01521
-0.00175524 -0.104933 0.0217195
-0.0175492 -0.112513 0.00298659
-0.0299421 -0.21579 0.0347816
0.202294 0.454967 0.107414
0.16936 0.45177 0.10891
-0.151635 -0.727243 0.101158
-0.172316 0.0855263 0.06925
-0.172591 0.121215 0.0627386
-0.18785 0.0850391 0.0478621
-0.178883 0.047994 0.0476195
-0.0917298 -0.63751 0.05582
-0.10995 -0.634586 0.0455755
-0.108054 -0.716487 0.0331817
-0.140253 0.112649 0.0293819
-0.119445 0.127043 0.0820309
-0.136126 0.0960862 0.0295338
-0.14293 0.14218 0.04942
-0.13938 0.1327 0.05298
0.0152057 0.549776 -0.0499995
-0.0871795 -0.425346 0.0273608
0.0997753 -0.749884 0.0645924
-0.0849198 -0.61068 0.10899
-0.105819 -0.332603 -0.014375
-0.10806 -0.3503 -0.0161052
0.159321 0.223612 0.0827079
-0.217393 0.50687 0.0832631
-0.21413 0.551708 0.0347168
0.101656 0.55547 0.102827
0.0537728 0.540887 0.116662
0.0247898 0.57031 0.08973
0.100968 0.579981 0.0793985
0.0338398 0.60222 0.06721
0.0639145 0.603395 0.0521936
0.0297088 0.62762 0.0569089
0.0622081 -0.700939 0.0864376
0.0847481 -0.734372 0.0842465
0.154439 0.497061 -0.0116376
0.14569 0.49122 -0.02195
-0.13936 0.06857 0.03691
-0.143707 0.0207888 0.0668027
-0.152255 0.00801418 0.0271245
-0.126547 0.0891509 0.0719561
0.147143 -0.824628 0.0650983
0.155306 -0.806865 0.0926739
-0.154653 0.00195626 0.0545543
-0.157337 -0.00328017 0.109728
-0.12381 0.01462 0.12337
-0.120724 -0.0181502 0.123152
0.159546 -0.806168 -0.00274486
0.15606 -0.7971 -0.0045
0.18332 0.0807416 0.0811945
0.198624 0.073275 0.108041
0.190652 0.0404487 0.116445
0.221408 0.458789 0.0915916
0.21371 0.46934 0.10517
0.215225 0.529855 0.0871869
0.0612447 0.569313 -0.0134326
0.0614477 0.550288 -0.043886
0.0813595 -0.582011 0.0802507
-0.0700301 0.23639 0.12353
-0.0604901 0.24552 0.12498
-0.0523701 0.23042 0.12308
0.218514 0.0609749 0.110776
0.15839 -0.55189 0.10726
0.17095 -0.46064 0.09747
0.158971 -0.655319 0.102027
0.161997 -0.467854 0.11235
-0.233158 0.1727 0.0989778
-0.207816 0.29944 0.113955
-0.213369 0.354366 0.100518
-0.117862 0.112399 -0.0249403
-0.122342 0.0606139 -0.0292625
-0.16656 -0.49636 0.07972
0.21745 0.54174 0.05492
0.209994 0.560202 0.0527326
0.222573 0.513284 0.0495404
0.190882 -0.82581 0.0318127
-0.163635 -0.282582 0.0302032
-0.15507 -0.31283 0.06166
0.0329778 0.846192 -0.0160656
0.0703957 0.824446 -0.0265228
0.0129128 0.846071 0.0331451
0.104866 -0.368498 -0.00187664
-0.182288 -0.0690804 0.102053
-0.205647 -0.0439162 0.118773
-0.193628 -0.0378855 0.106707
-0.220383 0.491965 0.0612425
0.0542199 0.650006 -0.0754816
0.13524 -0.698728 0.0309432
0.148096 -0.684682 0.0336631
-0.21013 0.54173 0.02093
-0.19054 0.5585 0.00477819
0.0711439 0.789803 -0.0725695
0.0907898 0.76355 -0.03611
-0.15367 0.175722 0.0887914
-0.177029 0.102095 0.102901
-0.146348 0.227503 0.0869164
-0.147819 0.278566 0.104709
-0.14591 0.31479 0.09627
0.106321 -0.274426 0.100213
0.0918901 -0.19704 0.12235
-0.16707 -0.0654903 0.0781688
-0.196034 -0.0573143 0.0715613
-0.0483457 -0.36162 0.0218359
-0.0487073 -0.415901 0.0526905
-0.0422309 -0.355465 0.0294219
0.20059 0.16872 0.04545
0.20591 0.312731 0.0365746
0.149771 -0.438305 0.0330964
0.135676 -0.446197 0.0278842
-0.0638169 0.643192 -0.0528629
-0.0684502 0.69464 -0.08357
-0.0824302 0.6976 -0.0445
-0.0824712 0.667659 -0.00893493
0.243716 0.280434 0.061582
0.24016 0.26332 0.053955
-0.177148 0.455493 0.00905652
-0.15659 0.44918 0.0039
-0.154569 0.469798 -0.0128748
0.179303 0.391134 0.110927
0.0366921 -0.11153 -0.00810983
-0.179632 0.580877 0.0623485
-0.204696 0.424352 0.119894
0.228913 0.414177 0.08912
0.22254 0.45717 0.07251
0.0861402 -0.51879 0.0418
-0.15265 0.437627 0.00695562
-0.198972 -0.0032227 0.0775604
-0.203516 -0.0346111 0.0531454
-0.0325033 0.742753 0.0858691
-0.0615079 0.735229 0.0703276
-0.0620178 0.782566 0.0648214
-0.0438849 0.827539 0.0578742
0.0589297 0.637783 0.0397562
-0.225635 0.188897 0.0458531
-0.220407 0.137055 0.0533653
-0.204265 0.0538155 0.0441058
0.13825 -0.14066 -0.02157
0.06418 -0.04469 -0.03653
0.0487673 -0.0801621 -0.0252374
0.05756 -0.10814 -0.021
0.11458 -0.31685 -0.01136
0.13557 -0.15258 -0.02206
0.131838 -0.298899 -0.0123151
0.0761802 -0.52492 0.11865
0.0808075 -0.553967 0.117058
0.0515313 -0.503867 0.0887662
0.0659312 -0.496191 0.120342
-0.136211 -0.342131 0.0912018
-0.150482 -0.339749 0.0692231
-0.13871 -0.21267 0.10459
-0.127316 -0.337867 0.0978414
-0.122427 -0.210713 0.121411
-0.14114 -0.20896 0.09971
-0.1442 -0.18573 0.09438
0.0112212 0.709901 0.0812888
-0.16085 0.26428 0.04407
-0.16416 0.26881 0.01832
-0.158281 0.351354 0.0410986
-0.207323 -0.0501131 0.0300976
-0.204136 -0.0724901 0.0583563
0.114479 -0.763277 0.0858648
0.218951 0.45882 0.0429352
0.20945 0.54451 0.0211
0.0766398 0.67001 -0.05292
0.0717498 0.65157 -0.05028
0.0854498 0.68665 -0.0162
0.231241 0.269674 0.040316
-0.0802884 -0.695451 0.120107
-0.169645 0.402362 0.017735
-0.15299 0.42308 0.02109
0.159464 -0.688557 0.115326
0.163091 -0.721845 0.0919767
0.131091 -0.757809 0.117307
0.215987 0.271826 0.035488
-0.113992 -0.74924 0.0332711
0.1564 -0.773811 0.103675
-0.0886611 0.795265 -0.0318286
-0.097183 0.790372 -0.00198891
0.10129 -0.45271 0.03147
0.0719135 0.641635 0.000547654
0.163472 0.0254365 0.0686501
0.165455 -0.842745 0.0204296
-0.181008 0.0211179 0.110081
-0.20538 0.0544467 0.107799
-0.193026 0.0730294 0.107568
-0.215608 0.00479508 0.120469
-0.0234638 0.82111 -0.0805202
0.164406 -0.848624 -0.0099633
0.0536962 0.6944 0.0573929
-0.172625 -0.0370747 0.0547125
-0.158589 -0.233993 0.00685847
-0.15823 -0.11873 0.0039
-0.163145 -0.0949074 0.0236221
-0.16248 -0.12283 0.04344
-0.16181 -0.22419 0.03611
0.185989 0.0440477 0.05268
-0.0391627 -0.452353 0.0641266
-0.0479648 -0.514046 0.0533464
-0.0867325 -0.372256 0.114717
-0.141882 -0.456742 0.114775
-0.142971 -0.396885 0.106722
-0.10761 -0.33952 0.10909
-0.0921558 -0.328412 0.110276
-0.130601 -0.362715 -0.0161819
-0.133214 -0.416008 0.0229108
-0.148207 -0.429511 0.0406519
0.0299199 0.41226 -0.10955
0.0655356 0.423514 -0.103614
0.0451199 0.43881 -0.10207
0.0451399 0.39263 -0.11308
0.13828 0.24197 -0.06085
0.13517 0.23805 -0.06297
0.11285 0.11593 -0.03784
0.14541 0.20597 -0.03594
-0.032247 0.647788 -0.0967862
-0.0953401 0.549781 -0.0225166
-0.110688 0.540214 -0.0143474
-0.0886021 0.581065 0.0614472
-0.109865 0.559036 0.10158
0.168229 -0.336328 0.00909449
-0.0830598 -0.56688 0.11385
-0.0561504 -0.520755 0.112084
-0.0844998 -0.55125 0.11559
-0.15886 0.18488 0.06317
-0.152589 0.247111 0.0609632
-0.15223 0.18464 0.07903
-0.173178 -0.777966 -0.00705476
-0.156641 -0.793986 -0.010082
-0.122205 -0.695974 0.0297581
0.228001 0.0512614 0.0712236
0.21802 0.0439829 0.0577628
0.201581 0.135877 0.115738
-0.0348941 0.647747 0.0587608
-0.0690119 0.661921 0.0157861
-0.0317024 0.684022 0.0670923
-0.022409 0.664163 0.068737
0.169968 -0.0771485 0.0664167
0.17592 -0.14578 0.06638
0.165569 -0.144314 0.0900769
0.164382 -0.0668245 0.0885646
-0.00620356 -0.109923 0.0700629
0.16081 0.391706 0.0251482
0.17267 0.39084 0.02347
-0.0466701 0.23441 0.12579
0.0902899 0.28556 0.1239
0.10566 0.34092 0.12012
0.0948299 0.29518 0.12262
0.1161 0.33239 0.11801
0.22465 0.49849 0.06162
0.09068 0.700927 0.013788
-0.129589 0.543186 -0.00513495
-0.146845 0.580064 0.0272025
-0.141256 0.524678 -0.0147999
-0.0677599 0.531337 -0.0519252
-0.04621 0.09505 0.12229
-0.0984811 0.159993 0.108378
-0.0567801 0.16183 0.12241
-0.0612701 0.17285 0.12165
-0.151957 0.488967 -0.0154861
-0.126524 0.477171 -0.0498096
-0.129387 0.455877 -0.0572658
-0.145441 0.449274 -0.0391195
-0.10924 0.25691 -0.07767
-0.123996 0.238086 -0.0607589
-0.1188 0.20313 -0.05096
-0.12659 0.1832 -0.0337
-0.154401 -0.613055 0.075066
-0.156319 -0.584012 0.0879304
0.0497403 -0.0929077 -0.0462772
0.0581302 -0.401817 0.0598434
-0.0549225 -0.394114 0.100922
0.0435756 0.565083 -0.0354378
0.155639 -0.317882 0.0796519
0.165264 0.168167 0.0843094
-0.161373 0.270147 0.0552787
-0.159893 -0.67683 0.0783852
0.226042 0.287289 0.0995808
0.213001 0.386048 0.107196
-0.147453 0.357954 0.10717
-0.153039 0.339158 0.116257
0.128355 0.110385 0.0837154
0.0614495 -0.438921 0.100686
0.0840386 -0.443877 0.120816
-0.149347 -0.486664 0.112157
0.1369 -0.139721 0.112985
0.135777 -0.19793 0.118906
-0.0272797 -0.225751 0.0477929
-0.229369 -0.0152178 0.0312956
-0.19325 0.00436678 0.0295997
-0.214505 0.0365968 0.0491821
0.0446779 0.734157 -0.112079
0.0624541 0.686709 -0.0930405
-0.05245 -0.05211 -0.03404
-0.03931 -0.06092 -0.0298
0.0635601 -0.18795 -0.00372
0.0662843 -0.365238 0.0132651
0.0492281 0.797697 -0.0915832
0.0069919 0.824905 -0.0867454
0.00198185 0.797109 -0.108187
0.175231 0.436146 0.0132528
0.21323 0.33822 0.04252
0.157056 0.465559 0.00371952
-0.0961668 0.73904 0.00221854
-0.0790868 0.682252 0.0204287
-0.0951876 0.753112 0.0205836
-0.0502568 0.58587 0.070844
-0.0887802 0.57101 0.08202
0.12275 0.0794 -0.03276
0.227531 0.334266 0.0652943
0.15024 0.21983 -0.03391
-0.168541 -0.774343 0.104078
-0.0313415 0.781063 -0.108218
0.031558 0.774056 -0.111775
-0.191574 0.337453 0.119993
0.0567001 -0.34976 0.01899
0.0510213 -0.356651 0.0310391
0.106016 0.290029 -0.0942313
0.214017 0.373176 0.043926
0.22811 0.389802 0.0794886
-0.0390316 -0.33488 0.0461139
-0.161128 0.5181 0.120021
-0.163337 0.00129488 0.0711519
-0.15517 -0.00196005 0.03932
-0.151151 -0.673068 0.0496617
-0.191508 -0.774111 0.0204137
-0.187813 -0.824971 -0.0149069
-0.215224 -0.828879 0.00210325
-0.13408 0.37493 -0.06194
0.21199 0.189286 0.111967
0.206276 0.102449 0.0482333
0.21782 0.0826101 0.05373
0.21395 0.1321 0.05052
-0.148865 -0.805643 0.0148713
-0.18001 -0.800265 0.0922216
-0.180111 -0.738026 0.0675153
0.113338 -0.322626 0.095541
-0.0677225 0.790402 -0.0711737
-0.0427899 -0.33569 0.05737
-0.070489 -0.306778 0.101786
0.172048 -0.675748 0.0798206
0.041218 -0.170346 0.0109089
0.0250318 -0.106811 0.0128382
0.0730618 0.700286 -0.0784422
-0.225 0.421844 0.0822688
0.0170137 0.668593 0.0612585
0.151597 0.0725055 0.048178
0.16743 -0.0149599 0.04169
0.18049 -0.18165 0.0352
0.17036 -0.0714699 0.0556
0.161016 0.0288318 0.100931
0.16743 -0.000849945 0.09644
-0.0316002 0.53909 -0.05433
-0.0841954 0.801889 0.0358405
-0.222635 -0.807372 0.0387648
0.16032 -0.62534 0.05327
0.16447 -0.63365 0.05938
0.0837415 -0.371954 0.0976442
0.0715892 -0.414189 0.097382
-0.132353 -0.450955 0.0315438
-0.137306 0.0395289 -0.00891127
0.0775616 -0.105176 0.125154
-0.06423 -0.1467 0.12187
-0.0805522 -0.0517263 0.12386
0.0216796 -0.029435 0.124596
-0.10682 -0.04671 0.12553
-0.12519 0.35357 0.11996
0.212772 0.281938 0.109923
0.19127 0.31165 0.11011
-0.12954 0.35497 0.11903
-0.13263 0.37349 0.12009
-0.15316 0.43186 0.11995
-0.16863 0.46107 0.11868
0.17413 0.46341 0.10953
-0.0942386 0.514984 0.120472
0.13571 0.52134 0.11294
0.11637 0.52711 0.11349
-0.0630728 0.531717 0.12038
-0.00601007 0.535019 0.117508
-0.00388166 0.561848 0.0942055
-0.172716 0.0453195 0.078891
-0.0978598 -0.65652 0.11595
-0.0727799 -0.39601 0.11549
-0.0647605 -0.23261 0.119759
0.10766 -0.41741 0.11799
0.100089 -0.376692 0.106703
-0.0742608 -0.357386 0.109967
0.11486 -0.693162 0.0463127
0.0919099 0.3966 -0.10008
-0.00948157 0.605297 0.0691273
-0.165453 0.413294 0.1205
0.208247 -0.056567 0.0326279
0.155455 0.464705 -0.006005
0.15685 0.42553 0.0217
0.16021 0.39266 0.01232
-0.226821 0.0428245 0.0885945
-0.2193 0.31547 0.05139
-0.20573 0.53804 0.01377
0.137572 0.581292 0.0689828
0.0609274 -0.406154 0.0774235
-0.203767 -0.795973 0.0811217
-0.162502 -0.00266302 0.0373708
-0.15763 -0.0256001 0.02076
-0.15314 -0.0146801 0.07414
-0.149462 -0.0702511 0.10261
-0.147633 -0.0419295 0.111684
0.11901 0.1759 0.10615
0.14822 0.37343 0.10257
-0.0551499 -0.19459 0.00091
-0.0624499 -0.36664 0.0134
-0.0359999 -0.23241 0.02984
0.0659526 0.591901 0.00977002
0.0202182 -0.10581 0.0510913
-0.15154 0.4533 -0.02339
0.164464 -0.336731 0.0687241
-0.140576 -0.692079 0.029311
0.147545 -0.498435 0.12038
-0.201165 -0.822053 0.0611139
-0.172697 -0.8222 0.0167049
-0.15457 -0.43475 0.10081
-0.0370752 -0.288434 0.0365931
-0.0244326 -0.118035 0.0991294
-0.10317 -0.31105 -0.00996
-0.19553 0.34979 0.03266
-0.0926882 0.765635 -0.0307743
-0.0765902 0.44749 -0.08771
-0.00582013 0.39146 -0.11125
-0.0206801 0.38132 -0.115
-0.209569 -0.845525 0.00367626
-0.160084 -0.0693454 0.00524837
-0.135339 -0.6391 0.0426246
-0.0487099 -0.389081 0.0711692
-0.0557499 -0.36253 0.08297
-0.223537 0.0395437 0.0644274
0.15518 -0.63256 0.04919
0.17841 -0.16756 0.04619
0.177417 -0.822761 0.00125972
0.17137 -0.30009 0.03906
0.1709 -0.16242 0.07329
-0.136317 -0.513072 0.0335824
-0.0881098 -0.53761 0.03363
-0.140251 -0.563299 0.0396629
-0.0974198 -0.57013 0.03937
-0.12725 0.27181 0.11383
0.0437401 0.824573 -0.0662511
3 0 1 2
3 3 4 5
3 6 7 8
3 9 10 11
3 12 13 14
3 15 16 17
3 18 19 20
3 21 18 20
3 21 20 22
3 23 21 22
3 23 22 24
3 25 23 24
3 24 26 27
3 25 24 27
3 28 29 30
3 31 32 33
3 31 33 34
3 31 34 35
3 36 31 35
3 36 35 37
3 35 38 37
3 39 40 41
3 42 39 41
3 43 42 41
3 44 45 46
3 47 48 28
3 49 44 50
3 49 50 51
3 52 53 54
3 55 56 57
3 58 59 60
3 61 62 63
3 64 65 66
3 67 68 69
3 67 69 70
3 67 70 71
3 70 72 71
3 70 73 74
3 70 74 72
3 75 76 77
3 78 79 80
3 9 11 81
3 82 83 84
3 85 86 87
3 88 89 90
3 91 92 93
3 91 93 94
3 95 96 97
3 98 85 99
3 73 100 101
3 100 102 101
3 103 104 105
3 106 107 108
3 106 108 109
3 110 111 112
3 113 114 115
3 116 117 118
3 116 119 117
3 119 10 117
3 120 121 122
3 121 123 122
3 121 124 123
3 125 126 127
3 128 129 130
3 128 130 131
3 20 128 131
3 22 20 131
3 22 131 132
3 26 22 132
3 27 26 132
3 27 132 133
3 27 133 134
3 135 134 136
3 135 27 134
3 135 137 27
3 135 136 138
3 136 139 138
3 140 141 32
3 140 32 31
3 142 143 144
3 143 145 144
3 143 146 145
3 147 148 149
3 147 150 148
3 151 152 153
3 154 155 156
3 157 158 159
3 160 161 162
3 160 162 163
3 160 163 164
3 140 31 165
3 166 167 168
3 122 123 169
3 170 171 172
3 172 173 170
3 166 174 175
3 176 82 88
3 177 178 179
3 120 180 181
3 181 182 183
3 120 181 183
3 121 120 183
3 184 185 186
3 184 186 187
3 184 187 188
3 189 190 191
3 191 192 189
3 83 82 176
3 193 194 180
3 180 195 193
3 180 120 195
3 196 197 198
3 199 196 198
3 200 198 201
3 200 199 198
3 200 202 199
3 202 203 199
3 204 91 94
3 205 204 94
3 205 206 204
3 207 208 209
3 210 207 209
3 210 209 47
3 211 212 213
3 211 214 212
3 214 215 212
3 215 216 212
3 215 217 216
3 218 219 220
3 221 222 223
3 224 225 226
3 227 228 229
3 230 227 229
3 231 230 229
3 87 86 232
3 233 234 235
3 236 237 238
3 236 238 239
3 236 239 240
3 236 240 241
3 240 242 241
3 116 118 243
3 116 243 244
3 245 17 246
3 247 248 249
3 250 247 249
3 250 249 251
3 250 251 114
3 96 210 252
3 253 63 62
3 254 255 256
3 257 258 259
3 98 260 85
3 261 103 105
3 262 62 263
3 262 263 264
3 265 266 267
3 266 265 268
3 269 270 271
3 272 273 274
3 10 9 275
3 182 194 276
3 277 171 278
3 279 280 281
3 282 267 283
3 284 285 221
3 267 282 286
3 287 288 289
3 289 290 287
3 289 291 290
3 15 150 16
3 292 27 137
3 141 293 32
3 294 295 296
3 294 297 295
3 298 114 299
3 254 256 300
3 301 302 303
3 304 301 303
3 253 305 306
3 253 306 307
3 253 307 63
3 308 309 310
3 308 311 312
3 308 312 309
3 313 105 265
3 57 56 314
3 273 59 315
3 316 264 263
3 317 138 139
3 139 318 317
3 200 201 319
3 320 321 222
3 322 323 324
3 325 322 324
3 326 325 324
3 326 327 325
3 326 328 327
3 315 329 330
3 331 36 332
3 333 188 310
3 334 335 333
3 333 310 336
3 334 333 336
3 288 334 336
3 274 337 338
3 339 335 334
3 340 339 334
3 340 341 342
3 60 343 344
3 245 345 346
3 347 245 346
3 348 298 349
3 348 349 350
3 32 351 352
3 109 353 218
3 354 355 356
3 347 346 357
3 358 359 360
3 358 361 359
3 361 4 359
3 25 27 292
3 362 89 110
3 89 82 110
3 82 84 110
3 84 363 110
3 84 364 363
3 133 132 365
3 133 365 366
3 163 162 367
3 368 369 370
3 320 221 285
3 221 320 222
3 113 299 114
3 41 40 371
3 372 373 277
3 374 375 30
3 376 374 30
3 81 11 377
3 378 379 380
3 320 381 321
3 232 104 382
3 383 279 106
3 383 384 279
3 383 58 60
3 383 60 384
3 385 386 321
3 315 58 329
3 252 387 388
3 96 252 388
3 389 390 153
3 391 389 153
3 392 393 391
3 392 391 153
3 394 195 120
3 395 394 120
3 120 122 395
3 396 378 397
3 398 399 400
3 401 402 196
3 199 401 196
3 403 404 281
3 403 281 280
3 405 260 406
3 405 406 407
3 405 407 158
3 266 405 158
3 266 158 408
3 267 266 408
3 409 410 12
3 409 12 78
3 411 412 413
3 378 380 397
3 414 114 298
3 415 234 296
3 416 223 222
3 285 284 417
3 22 26 24
3 418 348 419
3 227 230 420
3 411 421 412
3 380 422 423
3 272 59 273
3 424 425 426
3 424 426 427
3 428 327 328
3 429 205 94
3 429 430 205
3 430 431 205
3 432 433 434
3 435 432 434
3 435 436 437
3 435 437 432
3 436 438 437
3 439 440 441
3 439 441 442
3 443 444 445
3 446 443 445
3 447 446 445
3 445 448 449
3 447 445 449
3 269 447 449
3 28 450 424
3 29 28 424
3 451 452 453
3 396 454 455
3 274 273 337
3 273 315 337
3 315 456 337
3 457 370 458
3 388 459 460
3 96 388 460
3 96 460 461
3 97 96 461
3 462 410 409
3 463 61 192
3 411 464 465
3 466 467 468
3 469 402 401
3 63 307 470
3 338 468 471
3 395 169 146
3 395 122 169
3 472 175 174
3 473 472 174
3 341 340 288
3 287 341 288
3 9 81 474
3 404 9 474
3 438 10 119
3 97 475 208
3 125 476 246
3 477 274 41
3 478 479 480
3 379 481 380
3 482 166 175
3 60 483 343
3 484 48 209
3 423 422 485
3 486 487 488
3 486 488 489
3 489 490 486
3 490 372 486
3 440 353 231
3 231 441 440
3 491 199 203
3 55 399 56
3 55 492 399
3 55 493 492
3 493 178 492
3 494 495 496
3 496 446 494
3 446 497 494
3 497 498 494
3 499 170 500
3 170 501 500
3 502 503 504
3 502 505 503
3 506 507 508
3 509 506 508
3 509 508 243
3 253 62 262
3 85 510 86
3 286 282 511
3 282 512 511
3 513 514 223
3 223 416 513
3 416 282 513
3 0 10 515
3 516 517 316
3 516 518 517
3 519 391 520
3 519 302 391
3 302 521 391
3 302 389 521
3 302 301 389
3 522 523 524
3 525 526 225
3 92 453 464
3 527 357 346
3 528 267 408
3 529 528 408
3 529 530 528
3 530 531 528
3 532 533 534
3 532 534 7
3 535 532 7
3 6 535 7
3 536 64 295
3 225 526 491
3 537 197 538
3 539 355 540
3 355 354 541
3 355 541 540
3 541 542 540
3 541 543 542
3 370 544 368
3 208 95 545
3 546 547 386
3 546 386 548
3 549 286 511
3 550 290 551
3 550 551 552
3 551 553 552
3 161 501 173
3 161 173 162
3 554 555 548
3 554 556 555
3 554 557 556
3 132 131 558
3 132 558 559
3 132 559 560
3 132 560 561
3 132 561 365
3 15 347 150
3 164 163 367
3 164 367 562
3 367 563 562
3 368 544 419
3 350 368 419
3 350 419 348
3 447 269 271
3 415 564 292
3 229 565 441
3 483 272 477
3 179 566 177
3 352 351 567
3 568 3 142
3 248 569 319
3 92 570 453
3 394 395 146
3 571 562 255
3 562 563 255
3 418 572 573
3 573 298 418
3 298 348 418
3 392 574 393
3 392 575 574
3 404 403 9
3 70 576 73
3 577 578 442
3 90 429 88
3 207 95 208
3 259 258 579
3 259 579 495
3 307 306 524
3 169 580 581
3 582 536 297
3 460 261 461
3 261 475 461
3 475 97 461
3 44 220 219
3 583 584 585
3 583 454 584
3 50 44 219
3 50 219 440
3 439 50 440
3 226 149 224
3 434 433 25
3 586 87 587
3 588 589 137
3 41 274 338
3 256 192 300
3 435 590 436
3 590 591 436
3 591 377 436
3 466 45 44
3 44 49 466
3 592 593 594
3 165 36 331
3 595 165 331
3 595 596 165
3 331 597 595
3 595 402 596
3 598 599 408
3 598 600 599
3 601 602 513
3 601 513 283
3 508 23 25
3 603 243 508
3 603 508 25
3 244 603 25
3 433 244 25
3 433 432 244
3 572 604 409
3 134 133 366
3 509 67 605
3 509 243 68
3 509 68 67
3 202 200 319
3 318 139 499
3 191 606 300
3 432 116 244
3 432 119 116
3 432 437 119
3 437 438 119
3 157 159 598
3 594 607 608
3 607 99 608
3 609 152 363
3 454 396 423
3 590 610 591
3 194 565 611
3 393 520 392
3 392 520 393
3 6 226 16
3 393 520 392
3 565 228 611
3 32 352 33
3 352 34 33
3 124 64 66
3 210 30 375
3 507 612 18
3 507 18 21
3 23 507 21
3 23 508 507
3 462 402 469
3 476 245 246
3 12 14 78
3 364 285 417
3 599 529 408
3 457 613 614
3 613 604 614
3 496 443 446
3 400 399 615
3 616 284 221
3 581 145 146
3 73 101 74
3 434 25 564
3 485 422 617
3 614 604 572
3 418 614 572
3 510 232 86
3 335 339 618
3 127 246 17
3 68 243 118
3 2 68 118
3 2 118 117
3 2 117 0
3 54 140 369
3 524 523 307
3 523 470 307
3 522 619 620
3 620 621 522
3 620 622 621
3 82 89 88
3 556 557 623
3 456 338 337
3 456 468 338
3 289 336 309
3 289 309 291
3 210 47 30
3 178 177 492
3 491 203 345
3 97 208 545
3 14 357 527
3 14 527 79
3 527 624 79
3 621 523 522
3 481 379 155
3 625 626 627
3 105 268 265
3 628 629 190
3 629 191 190
3 571 630 619
3 369 368 350
3 480 479 112
3 480 112 111
3 631 193 195
3 394 631 195
3 175 472 632
3 76 633 634
3 634 77 76
3 42 467 635
3 42 635 39
3 415 435 434
3 415 590 435
3 415 636 590
3 218 220 109
3 397 380 156
3 319 203 202
3 319 569 203
3 569 345 203
3 636 637 276
3 330 329 45
3 329 46 45
3 587 638 586
3 250 114 414
3 83 385 321
3 83 321 381
3 381 639 83
3 450 484 640
3 2 69 68
3 2 641 69
3 2 1 642
3 2 642 641
3 642 476 641
3 1 126 642
3 126 246 642
3 1 643 126
3 643 644 126
3 598 408 157
3 85 87 586
3 476 645 641
3 476 646 645
3 647 265 286
3 647 286 549
3 174 648 473
3 282 283 513
3 622 620 649
3 363 364 609
3 214 211 650
3 215 214 650
3 651 215 650
3 95 207 96
3 577 442 441
3 74 101 72
3 101 198 72
3 652 653 193
3 567 313 504
3 352 567 504
3 504 34 352
3 504 35 34
3 504 503 35
3 500 501 654
3 365 184 655
3 228 591 611
3 520 302 519
3 8 169 656
3 65 657 658
3 8 656 66
3 66 65 658
3 237 8 66
3 237 66 659
3 659 66 658
3 659 658 660
3 659 660 342
3 238 237 659
3 238 659 342
3 238 342 341
3 239 238 341
3 239 341 240
3 341 287 240
3 287 290 550
3 287 550 240
3 550 552 240
3 552 540 240
3 540 542 240
3 624 527 248
3 552 661 354
3 552 354 356
3 552 356 540
3 80 624 247
3 662 80 247
3 356 539 540
3 661 541 354
3 662 247 663
3 573 662 663
3 573 663 414
3 115 543 541
3 661 115 541
3 661 664 115
3 664 665 115
3 665 666 115
3 298 573 414
3 666 113 115
3 666 299 113
3 666 667 299
3 667 668 299
3 349 298 668
3 667 417 284
3 667 349 668
3 667 284 349
3 284 52 349
3 284 616 669
3 284 669 670
3 284 670 52
3 669 671 670
3 671 53 670
3 670 53 52
3 669 672 673
3 669 673 671
3 673 323 671
3 323 322 671
3 673 674 323
3 547 282 416
3 98 607 260
3 493 264 178
3 12 525 13
3 632 607 482
3 13 357 14
3 263 62 463
3 493 55 305
3 264 493 305
3 264 305 262
3 478 675 422
3 422 380 478
3 13 224 149
3 149 148 13
3 456 315 330
3 427 426 648
3 641 70 69
3 218 440 219
3 458 370 140
3 415 292 234
3 152 575 392
3 491 345 476
3 515 10 275
3 213 515 275
3 213 275 211
3 28 30 47
3 314 318 499
3 500 314 499
3 81 377 591
3 228 81 591
3 228 474 81
3 228 227 474
3 227 107 474
3 227 420 107
3 420 230 107
3 230 108 107
3 463 192 256
3 676 463 256
3 676 256 257
3 516 676 257
3 259 516 257
3 259 518 516
3 259 677 518
3 259 495 677
3 495 494 677
3 447 678 498
3 447 657 678
3 447 271 657
3 271 270 657
3 270 658 657
3 658 342 660
3 679 3 5
3 679 680 3
3 680 631 3
3 631 142 3
3 681 566 179
3 402 538 197
3 402 197 196
3 58 682 329
3 142 394 143
3 570 204 206
3 520 570 206
3 520 206 302
3 157 408 158
3 54 141 140
3 215 651 39
3 215 39 217
3 39 635 217
3 77 634 498
3 77 498 678
3 265 267 286
3 505 683 503
3 505 19 683
3 19 612 683
3 19 18 612
3 328 684 531
3 328 531 640
3 15 245 347
3 666 665 685
3 666 685 667
3 638 387 586
3 638 388 387
3 638 459 388
3 610 636 276
3 610 276 194
3 611 610 194
3 425 599 600
3 686 225 125
3 687 331 605
3 597 687 605
3 688 597 605
3 688 595 597
3 605 67 689
3 605 689 688
3 67 537 689
3 689 537 688
3 67 71 537
3 71 197 537
3 690 481 155
3 223 616 221
3 303 205 431
3 431 304 303
3 490 373 372
3 490 444 373
3 490 445 444
3 691 692 385
3 83 691 385
3 83 176 691
3 17 245 15
3 386 547 416
3 53 671 322
3 322 54 53
3 322 693 54
3 577 694 653
3 470 523 628
3 300 571 254
3 571 255 254
3 506 38 683
3 506 683 612
3 506 612 507
3 434 564 415
3 310 188 308
3 583 455 454
3 104 268 105
3 249 201 251
3 110 151 111
3 183 124 121
3 581 146 169
3 584 454 423
3 380 481 478
3 584 423 485
3 301 675 390
3 301 390 389
3 629 695 630
3 684 674 601
3 684 601 283
3 8 237 6
3 696 485 617
3 692 554 386
3 692 386 385
3 448 490 489
3 448 445 490
3 488 697 489
3 697 448 489
3 697 618 448
3 618 339 449
3 618 449 448
3 339 269 449
3 339 698 269
3 698 699 269
3 698 700 699
3 700 270 699
3 125 246 126
3 100 242 701
3 102 100 701
3 102 701 702
3 294 296 703
3 294 703 704
3 705 294 704
3 705 297 294
3 398 705 704
3 398 704 56
3 17 125 127
3 475 261 351
3 706 475 351
3 571 164 562
3 637 296 295
3 707 124 183
3 485 397 584
3 687 597 331
3 16 150 6
3 185 708 413
3 185 413 412
3 185 412 186
3 412 421 186
3 421 411 465
3 421 465 186
3 465 452 186
3 465 453 452
3 465 464 453
3 308 188 187
3 308 187 186
3 308 186 452
3 308 452 451
3 311 308 451
3 342 658 700
3 171 170 499
3 506 37 38
3 506 332 37
3 506 331 332
3 506 605 331
3 506 509 605
3 556 623 130
3 623 131 130
3 623 558 131
3 707 276 637
3 707 182 276
3 583 154 455
3 212 216 359
3 212 359 4
3 709 212 4
3 155 379 156
3 491 476 125
3 151 153 111
3 127 644 246
3 156 455 154
3 312 311 451
3 312 451 520
3 312 520 393
3 451 453 570
3 451 570 520
3 324 323 674
3 326 324 674
3 326 674 684
3 328 326 684
3 524 710 522
3 397 156 423
3 494 634 681
3 672 674 673
3 672 514 674
3 514 602 674
3 602 601 674
3 30 29 376
3 676 316 263
3 676 263 463
3 17 16 226
3 707 637 295
3 64 707 295
3 64 124 707
3 358 360 49
3 51 358 49
3 51 711 358
3 694 565 194
3 653 694 194
3 653 194 193
3 572 80 662
3 402 595 538
3 109 220 329
3 394 142 631
3 564 25 292
3 522 710 619
3 686 226 225
3 586 99 85
3 669 616 223
3 672 669 223
3 514 672 223
3 236 241 576
3 712 713 622
3 466 635 467
3 367 714 563
3 172 171 277
3 367 162 173
3 367 173 714
3 173 172 714
3 172 277 373
3 172 373 444
3 172 444 714
3 444 443 714
3 443 496 714
3 620 619 630
3 391 393 520
3 528 684 283
3 528 531 684
3 303 302 206
3 303 206 205
3 210 96 207
3 6 535 226
3 336 310 309
3 149 226 535
3 715 615 633
3 715 633 76
3 582 715 76
3 536 295 297
3 536 582 76
3 76 75 536
3 75 716 536
3 678 657 77
3 657 75 77
3 147 535 6
3 376 168 167
3 167 374 376
3 197 71 72
3 197 72 198
3 173 501 170
3 135 138 588
3 135 588 137
3 138 717 588
3 138 317 717
3 179 264 316
3 179 316 517
3 656 124 66
3 693 141 54
3 464 411 718
3 464 718 92
3 718 93 92
3 124 656 123
3 292 137 235
3 106 109 682
3 455 156 378
3 260 607 632
3 260 632 472
3 260 472 406
3 472 407 406
3 472 473 719
3 472 719 407
3 313 647 504
3 647 720 504
3 720 129 504
3 129 502 504
3 129 721 502
3 129 128 721
3 128 722 721
3 291 551 290
3 411 692 691
3 411 413 692
3 413 554 692
3 718 411 691
3 718 691 93
3 396 455 378
3 248 345 569
3 3 709 4
3 3 568 709
3 353 440 218
3 346 345 248
3 226 532 686
3 512 282 546
3 61 63 189
3 54 350 52
3 150 357 148
3 150 347 357
3 686 644 532
3 369 140 370
3 376 29 427
3 526 626 625
3 723 621 622
3 245 476 345
3 486 372 278
3 45 466 468
3 422 675 617
3 265 647 313
3 655 184 188
3 724 655 188
3 188 333 724
3 333 335 724
3 335 697 724
3 697 488 724
3 335 618 697
3 222 321 416
3 470 189 63
3 586 608 99
3 712 628 713
3 712 629 628
3 386 554 548
3 366 365 655
3 136 366 655
3 136 655 724
3 136 724 487
3 139 136 487
3 139 487 486
3 139 486 278
3 491 526 625
3 355 539 356
3 234 233 296
3 64 536 716
3 725 710 306
3 710 524 306
3 415 296 637
3 248 247 624
3 537 595 688
3 75 657 716
3 636 415 637
3 13 225 224
3 14 79 78
3 534 8 7
3 363 152 110
3 726 399 492
3 726 492 177
3 615 726 727
3 633 615 727
3 634 633 727
3 681 634 727
3 471 43 338
3 360 635 466
3 49 360 466
3 153 152 392
3 104 232 268
3 123 656 169
3 278 499 139
3 278 171 499
3 112 690 362
3 112 362 110
3 446 447 497
3 682 109 329
3 234 292 235
3 427 29 424
3 441 565 694
3 441 694 577
3 351 32 293
3 630 300 606
3 630 571 300
3 717 589 588
3 717 235 589
3 717 233 235
3 717 703 233
3 703 296 233
3 717 704 703
3 717 317 704
3 317 318 704
3 430 429 90
3 728 430 90
3 90 362 728
3 619 710 725
3 566 681 727
3 225 13 525
3 575 152 609
3 685 575 609
3 685 609 417
3 91 570 92
3 91 204 570
3 380 423 156
3 598 719 473
3 598 473 600
3 427 174 168
3 427 168 376
3 518 677 517
3 677 681 517
3 677 494 681
3 498 634 494
3 527 346 248
3 690 112 479
3 650 403 280
3 650 280 279
3 729 650 279
3 729 651 650
3 236 6 237
3 665 574 685
3 229 228 565
3 322 325 693
3 401 627 469
3 100 73 576
3 100 576 241
3 428 706 327
3 277 278 372
3 358 711 361
3 700 658 270
3 226 686 532
3 429 94 88
3 623 557 708
3 623 708 185
3 558 623 185
3 559 558 185
3 560 559 185
3 184 561 185
3 561 560 185
3 184 365 561
3 630 606 629
3 298 299 668
3 362 690 728
3 208 475 706
3 208 706 428
3 209 208 428
3 484 209 428
3 165 31 36
3 99 607 98
3 626 12 410
3 626 526 12
3 526 525 12
3 180 194 182
3 181 180 182
3 625 627 401
3 60 59 272
3 545 95 97
3 639 381 320
3 285 639 320
3 17 226 686
3 246 6 646
3 626 410 462
3 627 626 462
3 644 643 730
3 730 533 644
3 533 532 644
3 532 246 644
3 532 535 246
3 535 6 246
3 534 145 581
3 534 581 580
3 534 580 8
3 580 169 8
3 136 134 366
3 458 140 165
3 458 165 596
3 458 596 613
3 458 613 457
3 596 604 613
3 129 720 555
3 129 555 556
3 129 556 130
3 166 168 174
3 491 125 225
3 664 574 665
3 272 274 477
3 481 479 478
3 425 424 530
3 439 51 50
3 439 711 51
3 439 442 711
3 442 578 711
3 578 5 711
3 578 679 5
3 724 488 487
3 70 641 645
3 70 645 576
3 645 236 576
3 343 483 731
3 423 396 397
3 362 90 89
3 624 80 79
3 261 105 313
3 567 261 313
3 41 371 477
3 264 179 178
3 649 620 630
3 732 1 0
3 563 256 255
3 563 257 256
3 563 714 258
3 563 258 257
3 714 579 258
3 714 496 579
3 424 450 530
3 48 484 450
3 28 48 450
3 715 582 297
3 715 297 705
3 733 534 533
3 733 533 730
3 65 716 657
3 108 230 231
3 695 649 630
3 587 87 382
3 584 431 585
3 304 431 584
3 696 304 584
3 578 577 653
3 679 578 653
3 679 653 652
3 680 679 652
3 631 680 652
3 193 631 652
3 430 728 431
3 728 585 431
3 427 648 174
3 592 594 608
3 246 646 476
3 685 417 667
3 11 438 436
3 11 436 377
3 510 405 268
3 619 164 571
3 235 137 589
3 42 43 471
3 467 42 471
3 400 705 398
3 93 691 176
3 94 93 176
3 176 88 94
3 407 719 158
3 719 598 158
3 598 159 158
3 182 707 183
3 530 529 599
3 530 599 425
3 593 167 166
3 482 593 166
3 108 231 353
3 108 353 109
3 723 622 713
3 314 500 654
3 57 314 654
3 57 654 734
3 57 734 735
3 734 736 735
3 736 737 735
3 736 725 737
3 725 306 737
3 44 46 220
3 604 596 402
3 289 288 336
3 282 547 546
3 126 644 127
3 459 638 587
3 382 87 232
3 459 587 382
3 459 382 104
3 104 103 459
3 103 460 459
3 103 261 460
3 343 40 39
3 343 731 40
3 592 608 586
3 387 592 586
3 530 450 531
3 399 398 56
3 242 240 542
3 701 242 542
3 702 701 542
3 702 542 543
3 114 543 115
3 114 702 543
3 309 312 393
3 309 393 291
3 393 738 291
3 393 574 738
3 361 711 5
3 4 361 5
3 360 217 635
3 360 216 217
3 360 359 216
3 325 141 693
3 325 327 141
3 327 293 141
3 242 100 241
3 720 647 549
3 720 549 511
3 511 512 546
3 720 511 546
3 720 546 548
3 548 555 720
3 510 85 260
3 479 481 690
3 611 591 610
3 505 502 721
3 19 505 721
3 19 721 722
3 128 19 722
3 128 20 19
3 438 11 10
3 654 501 161
3 734 654 161
3 736 734 161
3 736 161 160
3 736 160 164
3 736 164 725
3 164 619 725
3 739 167 593
3 532 644 686
3 503 38 35
3 503 683 38
3 147 149 535
3 729 279 384
3 344 729 384
3 344 384 60
3 198 101 102
3 201 198 102
3 102 702 201
3 702 251 201
3 702 114 251
3 675 480 390
3 270 269 699
3 316 676 516
3 685 574 575
3 247 250 663
3 250 414 663
3 175 632 482
3 480 111 153
3 144 709 568
3 142 144 568
3 321 386 416
3 201 249 319
3 249 248 319
3 179 517 681
3 520 393 392
3 646 6 236
3 645 646 236
3 252 375 387
3 252 210 375
3 715 705 400
3 615 715 400
3 58 315 59
3 275 403 650
3 211 275 650
3 394 146 143
3 468 456 330
3 468 330 45
3 462 469 627
3 399 726 615
3 471 468 467
3 389 391 521
3 383 106 682
3 58 383 682
3 189 470 190
3 593 592 739
3 661 552 553
3 553 551 291
3 553 291 738
3 661 553 738
3 661 738 574
3 664 661 574
3 13 148 357
3 9 403 275
3 425 600 648
3 426 425 648
3 150 147 6
3 199 491 625
3 199 625 401
3 629 712 695
3 463 62 61
3 220 46 329
3 476 642 246
3 700 340 342
3 156 379 378
3 739 374 167
3 739 375 374
3 495 579 496
3 281 404 474
3 281 474 107
3 279 281 107
3 279 107 106
3 731 371 40
3 450 640 531
3 497 447 498
3 375 739 592
3 387 375 592
3 253 262 305
3 192 61 189
3 36 37 332
3 344 651 729
3 344 39 651
3 344 343 39
3 43 41 338
3 190 470 628
3 622 649 712
3 696 584 485
3 538 595 537
3 243 603 244
3 283 267 528
3 260 405 510
3 428 328 640
3 484 428 640
3 60 272 483
3 339 340 698
3 340 700 698
3 590 636 610
3 675 301 304
3 713 621 723
3 41 477 274
3 477 41 274
3 390 480 153
3 477 731 483
3 314 704 318
3 314 56 704
3 351 261 567
3 84 83 639
3 364 84 639
3 285 364 639
3 731 477 371
3 510 268 232
3 583 585 728
3 728 690 583
3 690 154 583
3 54 369 350
3 675 304 696
3 675 696 617
3 405 266 268
3 726 177 566
3 727 726 566
3 621 713 628
3 48 47 209
3 191 300 192
3 708 557 554
3 708 554 413
3 473 648 600
3 593 482 594
3 482 607 594
3 10 0 117
3 293 327 706
3 293 706 351
3 340 334 288
3 572 662 573
3 523 621 628
3 716 65 64
3 544 370 457
3 614 544 457
3 614 419 544
3 614 418 419
3 0 515 213
3 0 213 212
3 732 0 212
3 732 212 709
3 1 732 709
3 1 709 643
3 709 730 643
3 709 733 730
3 349 52 350
3 478 480 675
3 409 78 80
3 409 80 572
3 584 397 485
3 231 229 441
3 695 712 649
3 604 402 462
3 462 409 604
3 364 417 609
3 686 125 17
3 110 152 151
3 55 57 735
3 305 55 735
3 737 305 735
3 737 306 305
3 191 629 606
3 155 154 690
3 709 144 733
3 144 145 733
3 145 534 733
